<?xml version="1.0" encoding="UTF-8"?>
<svg width="18px" height="17px" viewBox="0 0 18 17" version="1.1" xmlns="http://www.w3.org/2000/svg" xmlns:xlink="http://www.w3.org/1999/xlink">
    <!-- Generator: Sketch 58 (84663) - https://sketch.com -->
    <title>Слой_151</title>
    <desc>Created with Sketch.</desc>
    <g id="Page-1" stroke="none" stroke-width="1" fill="none" fill-rule="evenodd" opacity="1">
        <g id="Desktop-HD" transform="translate(-604.000000, -667.000000)" fill="currentColor">
            <g id="post-copy" transform="translate(450.000000, 478.000000)">
                <g id="Слой_151" transform="translate(154.000000, 189.000000)">
                    <path d="M14.2880002,1.36000002 C15.6134836,1.36000002 16.6880002,2.43451664 16.6880002,3.76000006 L16.6880002,10.1600002 C16.6880002,11.4854836 15.6134836,12.5600002 14.2880002,12.5600002 L6.9880001,12.5600002 L4.28800006,14.9600002 L4.28800006,12.5600002 L3.88800006,12.5600002 C2.56251664,12.5600002 1.48800002,11.4854836 1.48800002,10.1600002 L1.48800002,3.76000006 C1.48800002,2.43451664 2.56251664,1.36000002 3.88800006,1.36000002 L14.2880002,1.36000002 L14.2880002,1.36000002 Z M14.2880002,0.160000002 L3.88800006,0.160000002 C1.89977493,0.160000002 0.288000004,1.77177493 0.288000004,3.76000006 L0.288000004,10.1600002 C0.287059658,11.8407591 1.44926639,13.2984984 3.08800005,13.6720002 L3.08800005,14.9600002 C3.08737907,15.4335068 3.3652595,15.8631063 3.79738351,16.0566979 C4.22950751,16.2502895 4.73506919,16.171672 5.08800008,15.8560002 L7.44800011,13.7600002 L14.2880002,13.7600002 C16.2762253,13.7600002 17.8880003,12.1482253 17.8880003,10.1600002 L17.8880003,3.76000006 C17.8880003,1.77177493 16.2762253,0.160000002 14.2880002,0.160000002 L14.2880002,0.160000002 Z" id="Shape"></path>
                    <circle id="Oval" cx="9.08800014" cy="6.9600001" r="1"></circle>
                    <circle id="Oval" cx="13.0880002" cy="6.9600001" r="1"></circle>
                    <circle id="Oval" cx="5.13600008" cy="6.9600001" r="1"></circle>
                </g>
            </g>
        </g>
    </g>
</svg>