<?xml version="1.0" encoding="UTF-8"?>
<svg width="28px" height="27px" viewBox="0 0 28 27" version="1.1" xmlns="http://www.w3.org/2000/svg" xmlns:xlink="http://www.w3.org/1999/xlink">
    <!-- Generator: Sketch 58 (84663) - https://sketch.com -->
    <title>Home</title>
    <desc>Created with Sketch.</desc>
    <g id="Page-1" stroke="none" stroke-width="1" fill="none" fill-rule="evenodd">
        <g id="Desktop-HD" transform="translate(-137.000000, -129.000000)" fill="currentColor">
            <g id="Group-2" transform="translate(137.000000, 50.000000)">
                <g id="Group-5-Copy" transform="translate(-0.000000, 79.000000)">
                    <g id="Home">
                        <path d="M27.4175988,10.7792995 L15.5357993,0.69929997 C14.8306521,0.10148725 13.7965467,0.10148725 13.0913994,0.69929997 L1.20959995,10.7792995 C0.619558251,11.2820287 0.396313536,12.0940765 0.646440125,12.8277812 C0.896566714,13.5614859 1.56934545,14.0680712 2.3435999,14.1056994 L2.3435999,24.1856989 C2.3435999,25.2295171 3.18978168,26.0756989 4.23359982,26.0756989 L24.3935989,26.0756989 C25.4374171,26.0756989 26.2835989,25.2295171 26.2835989,24.1856989 L26.2835989,14.1119994 C27.0578533,14.0743712 27.730632,13.5677859 27.9807586,12.8340812 C28.2308852,12.1003765 28.0076405,11.2883287 27.4175988,10.7855995 L27.4175988,10.7792995 Z M13.6835994,24.1919989 L12.4235995,24.1919989 L12.4235995,18.5219992 L16.2035993,18.5219992 L16.2035993,24.1919989 L13.6835994,24.1919989 Z M24.3935989,12.2219995 L24.3935989,24.1919989 L18.0935992,24.1919989 L18.0935992,18.5219992 C18.0935992,17.4781811 17.2474174,16.6319993 16.2035993,16.6319993 L12.4235995,16.6319993 C11.3797813,16.6319993 10.5335995,17.4781811 10.5335995,18.5219992 L10.5335995,24.1919989 L4.23359982,24.1919989 L4.23359982,12.2219995 L2.43179989,12.2219995 L14.3135994,2.14199991 L26.1953989,12.2219995 L24.3935989,12.2219995 Z" id="Shape"></path>
                    </g>
                </g>
            </g>
        </g>
    </g>
</svg>