<svg width="60" height="37" viewBox="0 0 60 37" fill="none" xmlns="http://www.w3.org/2000/svg">
<path d="M0.00610892 7.37312C0.00610892 6.31232 0.180829 5.35136 0.530269 4.49024C0.892189 3.62912 1.39139 2.89904 2.02787 2.3C2.66435 1.68848 3.41939 1.22048 4.29299 0.896C5.16659 0.57152 6.12131 0.40928 7.15715 0.40928C8.19299 0.40928 9.14771 0.57152 10.0213 0.896C10.8949 1.22048 11.6499 1.68848 12.2864 2.3C12.9229 2.89904 13.4159 3.62912 13.7653 4.49024C14.1272 5.35136 14.3082 6.31232 14.3082 7.37312C14.3082 8.43392 14.1272 9.39488 13.7653 10.256C13.4159 11.1171 12.9229 11.8534 12.2864 12.465C11.6499 13.064 10.8949 13.5258 10.0213 13.8502C9.14771 14.1747 8.19299 14.337 7.15715 14.337C6.12131 14.337 5.16659 14.1747 4.29299 13.8502C3.41939 13.5258 2.66435 13.064 2.02787 12.465C1.39139 11.8534 0.892189 11.1171 0.530269 10.256C0.180829 9.39488 0.00610892 8.43392 0.00610892 7.37312ZM3.03875 7.37312C3.03875 7.99712 3.13235 8.5712 3.31955 9.09536C3.51923 9.60704 3.80003 10.0563 4.16195 10.4432C4.52387 10.8176 4.95443 11.1109 5.45363 11.323C5.96531 11.5352 6.53315 11.6413 7.15715 11.6413C7.78115 11.6413 8.34275 11.5352 8.84195 11.323C9.35363 11.1109 9.79043 10.8176 10.1523 10.4432C10.5143 10.0563 10.7888 9.60704 10.976 9.09536C11.1757 8.5712 11.2755 7.99712 11.2755 7.37312C11.2755 6.7616 11.1757 6.19376 10.976 5.6696C10.7888 5.14544 10.5143 4.69616 10.1523 4.32176C9.79043 3.93488 9.35363 3.63536 8.84195 3.4232C8.34275 3.21104 7.78115 3.10496 7.15715 3.10496C6.53315 3.10496 5.96531 3.21104 5.45363 3.4232C4.95443 3.63536 4.52387 3.93488 4.16195 4.32176C3.80003 4.69616 3.51923 5.14544 3.31955 5.6696C3.13235 6.19376 3.03875 6.7616 3.03875 7.37312ZM24.6984 14H22.0027V12.7645H21.9653C21.8654 12.9392 21.7344 13.1139 21.5721 13.2886C21.4224 13.4634 21.2352 13.6194 21.0105 13.7566C20.7859 13.8939 20.5301 14.0062 20.243 14.0936C19.956 14.181 19.644 14.2246 19.307 14.2246C18.5957 14.2246 18.0153 14.1186 17.5661 13.9064C17.1293 13.6818 16.7861 13.376 16.5365 12.9891C16.2993 12.6022 16.1371 12.1467 16.0497 11.6226C15.9749 11.0984 15.9374 10.5306 15.9374 9.91904V4.90208H18.7454V9.35744C18.7454 9.61952 18.7517 9.89408 18.7641 10.1811C18.7891 10.4557 18.8453 10.7115 18.9326 10.9486C19.0325 11.1858 19.176 11.3792 19.3632 11.529C19.5629 11.6787 19.8437 11.7536 20.2056 11.7536C20.5675 11.7536 20.8608 11.6912 21.0854 11.5664C21.3101 11.4291 21.4785 11.2544 21.5909 11.0422C21.7157 10.8176 21.7968 10.568 21.8342 10.2934C21.8717 10.0189 21.8904 9.73184 21.8904 9.43232V4.90208H24.6984V14ZM26.6868 4.90208H29.4948V6.36224H29.5322C29.8317 5.80064 30.1874 5.38256 30.5993 5.108C31.0111 4.82096 31.529 4.67744 32.153 4.67744C32.3153 4.67744 32.4775 4.68368 32.6397 4.69616C32.802 4.70864 32.9517 4.7336 33.089 4.77104V7.33568C32.8893 7.27328 32.6897 7.2296 32.49 7.20464C32.3028 7.1672 32.1031 7.14848 31.8909 7.14848C31.3543 7.14848 30.93 7.22336 30.618 7.37312C30.306 7.52288 30.0626 7.73504 29.8879 8.0096C29.7257 8.27168 29.6196 8.58992 29.5697 8.96432C29.5197 9.33872 29.4948 9.75056 29.4948 10.1998V14H26.6868V4.90208ZM0.717469 22.7462H3.63779V27.6883H9.30995V22.7462H12.2303V36H9.30995V30.2717H3.63779V36H0.717469V22.7462ZM20.2759 34.8581H20.2385C19.9265 35.3448 19.5084 35.6942 18.9842 35.9064C18.4726 36.1186 17.9297 36.2246 17.3556 36.2246C16.9313 36.2246 16.5194 36.1622 16.1201 36.0374C15.7332 35.9251 15.39 35.7504 15.0905 35.5133C14.791 35.2762 14.5538 34.9829 14.3791 34.6334C14.2044 34.284 14.117 33.8784 14.117 33.4166C14.117 32.8925 14.2106 32.4494 14.3978 32.0875C14.5975 31.7256 14.8596 31.4261 15.1841 31.189C15.521 30.9518 15.9017 30.7709 16.326 30.6461C16.7503 30.5088 17.1871 30.409 17.6364 30.3466C18.0982 30.2842 18.5537 30.2467 19.003 30.2342C19.4647 30.2218 19.889 30.2155 20.2759 30.2155C20.2759 29.7163 20.095 29.3232 19.733 29.0362C19.3836 28.7366 18.9655 28.5869 18.4788 28.5869C18.017 28.5869 17.5927 28.6867 17.2058 28.8864C16.8314 29.0736 16.4945 29.3357 16.195 29.6726L14.6974 28.1376C15.2215 27.6509 15.833 27.289 16.5319 27.0518C17.2308 26.8022 17.9546 26.6774 18.7034 26.6774C19.5271 26.6774 20.201 26.7835 20.7252 26.9957C21.2618 27.1954 21.6862 27.4949 21.9982 27.8942C22.3226 28.2936 22.5473 28.7866 22.6721 29.3731C22.7969 29.9472 22.8593 30.6149 22.8593 31.3762V36H20.2759V34.8581ZM19.5833 32.0126C19.3711 32.0126 19.1028 32.0251 18.7783 32.0501C18.4663 32.0626 18.1606 32.1125 17.861 32.1998C17.574 32.2872 17.3244 32.4182 17.1122 32.593C16.9126 32.7677 16.8127 33.011 16.8127 33.323C16.8127 33.66 16.9562 33.9096 17.2433 34.0718C17.5303 34.2341 17.8298 34.3152 18.1418 34.3152C18.4164 34.3152 18.6785 34.2778 18.9281 34.2029C19.1902 34.128 19.421 34.0219 19.6207 33.8846C19.8204 33.7474 19.9764 33.5726 20.0887 33.3605C20.2135 33.1483 20.2759 32.8987 20.2759 32.6117V32.0126H19.5833ZM24.621 26.9021H27.3167V28.1376H27.3541C27.4415 27.9629 27.5663 27.7882 27.7285 27.6134C27.8908 27.4387 28.0842 27.2827 28.3088 27.1454C28.5335 27.0082 28.7893 26.8958 29.0764 26.8085C29.3634 26.7211 29.6754 26.6774 30.0124 26.6774C30.7237 26.6774 31.2978 26.7898 31.7346 27.0144C32.1714 27.2266 32.5084 27.5261 32.7455 27.913C32.9951 28.2998 33.1636 28.7554 33.2509 29.2795C33.3383 29.8037 33.382 30.3715 33.382 30.983V36H30.574V31.5446C30.574 31.2826 30.5615 31.0142 30.5365 30.7397C30.524 30.4526 30.4679 30.1906 30.368 29.9534C30.2807 29.7163 30.1372 29.5229 29.9375 29.3731C29.7503 29.2234 29.4757 29.1485 29.1138 29.1485C28.7519 29.1485 28.4586 29.2171 28.234 29.3544C28.0093 29.4792 27.8346 29.6539 27.7098 29.8786C27.5975 30.0907 27.5226 30.3341 27.4852 30.6086C27.4477 30.8832 27.429 31.1702 27.429 31.4698V36H24.621V26.9021ZM44.9176 36H42.3342V34.8019H42.2968C42.1845 34.9642 42.0347 35.1326 41.8475 35.3074C41.6728 35.4696 41.4606 35.6194 41.211 35.7566C40.9739 35.8939 40.7056 36.0062 40.4061 36.0936C40.119 36.181 39.8195 36.2246 39.5075 36.2246C38.8336 36.2246 38.2221 36.1123 37.6729 35.8877C37.1238 35.6506 36.6496 35.3261 36.2502 34.9142C35.8633 34.4899 35.5638 33.9907 35.3517 33.4166C35.1395 32.8426 35.0334 32.2123 35.0334 31.5259C35.0334 30.8894 35.127 30.2842 35.3142 29.7101C35.5139 29.1235 35.7885 28.6056 36.1379 28.1563C36.4998 27.707 36.9366 27.3514 37.4483 27.0893C37.96 26.8147 38.5403 26.6774 39.1893 26.6774C39.7758 26.6774 40.3187 26.771 40.8179 26.9582C41.3296 27.133 41.7477 27.4387 42.0721 27.8755H42.1096V21.8477H44.9176V36ZM42.3342 31.451C42.3342 30.7646 42.1345 30.2093 41.7352 29.785C41.3483 29.3606 40.7992 29.1485 40.0878 29.1485C39.3765 29.1485 38.8211 29.3606 38.4217 29.785C38.0349 30.2093 37.8414 30.7646 37.8414 31.451C37.8414 32.1374 38.0349 32.6928 38.4217 33.1171C38.8211 33.5414 39.3765 33.7536 40.0878 33.7536C40.7992 33.7536 41.3483 33.5414 41.7352 33.1171C42.1345 32.6928 42.3342 32.1374 42.3342 31.451ZM52.3098 29.579C51.8979 29.0674 51.3551 28.8115 50.6811 28.8115C50.444 28.8115 50.2131 28.8677 49.9885 28.98C49.7639 29.0923 49.6515 29.2858 49.6515 29.5603C49.6515 29.785 49.7639 29.9534 49.9885 30.0658C50.2256 30.1656 50.5189 30.2592 50.8683 30.3466C51.2303 30.4214 51.6109 30.5088 52.0103 30.6086C52.4221 30.696 52.8027 30.8395 53.1522 31.0392C53.5141 31.2389 53.8074 31.5134 54.032 31.8629C54.2691 32.1998 54.3877 32.6554 54.3877 33.2294C54.3877 33.816 54.2567 34.3027 53.9946 34.6896C53.745 35.064 53.4205 35.3698 53.0211 35.6069C52.6218 35.8315 52.1725 35.9875 51.6733 36.0749C51.1741 36.1747 50.6811 36.2246 50.1944 36.2246C49.5579 36.2246 48.9152 36.1373 48.2663 35.9626C47.6173 35.7754 47.0682 35.4509 46.6189 34.9891L48.3224 33.0984C48.5845 33.4229 48.8715 33.6725 49.1835 33.8472C49.508 34.0094 49.8824 34.0906 50.3067 34.0906C50.6312 34.0906 50.9245 34.0469 51.1866 33.9595C51.4487 33.8597 51.5797 33.685 51.5797 33.4354C51.5797 33.1982 51.4611 33.0235 51.224 32.9112C50.9994 32.7864 50.7061 32.6866 50.3442 32.6117C49.9947 32.5243 49.6141 32.437 49.2023 32.3496C48.8029 32.2498 48.4223 32.1062 48.0603 31.919C47.7109 31.7318 47.4176 31.4698 47.1805 31.1328C46.9559 30.7834 46.8435 30.3216 46.8435 29.7475C46.8435 29.2109 46.9496 28.7491 47.1618 28.3622C47.3864 27.9754 47.6735 27.6571 48.0229 27.4075C48.3848 27.1579 48.7967 26.977 49.2584 26.8646C49.7202 26.7398 50.1882 26.6774 50.6624 26.6774C51.2615 26.6774 51.8667 26.7648 52.4783 26.9395C53.0898 27.1142 53.6077 27.4262 54.032 27.8755L52.3098 29.579ZM55.8833 34.3901C55.8833 34.153 55.9269 33.9283 56.0143 33.7162C56.1017 33.504 56.2202 33.323 56.37 33.1733C56.5322 33.011 56.7194 32.8862 56.9316 32.7989C57.1437 32.7115 57.3684 32.6678 57.6055 32.6678C57.8426 32.6678 58.0673 32.7115 58.2794 32.7989C58.4916 32.8862 58.6725 33.011 58.8223 33.1733C58.9845 33.323 59.1093 33.504 59.1967 33.7162C59.2841 33.9283 59.3277 34.153 59.3277 34.3901C59.3277 34.6272 59.2841 34.8518 59.1967 35.064C59.1093 35.2762 58.9845 35.4634 58.8223 35.6256C58.6725 35.7754 58.4916 35.8939 58.2794 35.9813C58.0673 36.0686 57.8426 36.1123 57.6055 36.1123C57.3684 36.1123 57.1437 36.0686 56.9316 35.9813C56.7194 35.8939 56.5322 35.7754 56.37 35.6256C56.2202 35.4634 56.1017 35.2762 56.0143 35.064C55.9269 34.8518 55.8833 34.6272 55.8833 34.3901Z" fill="#0A0A0A"/>
</svg>
