<?xml version="1.0" encoding="UTF-8"?>
<svg width="17px" height="17px" viewBox="0 0 17 17" version="1.1" xmlns="http://www.w3.org/2000/svg" xmlns:xlink="http://www.w3.org/1999/xlink">
    <!-- Generator: Sketch 58 (84663) - https://sketch.com -->
    <title>Shape</title>
    <desc>Created with Sketch.</desc>
    <g id="Page-1" stroke="none" stroke-width="1" fill="none" fill-rule="evenodd" opacity="1">
        <g id="Desktop-HD" transform="translate(-485.000000, -401.000000)" fill="currentColor">
            <g id="post" transform="translate(449.000000, 215.000000)">
                <g id="Like-3" transform="translate(36.000000, 186.000000)">
                    <path d="M16.6880002,7.36000011 C16.6880002,6.25543059 15.7925697,5.36000008 14.6880002,5.36000008 L11.8880002,5.36000008 L11.8880002,2.56000004 C11.8880002,1.36000002 11.2000002,0.160000002 9.88800015,0.160000002 C8.57600013,0.160000002 7.88800012,1.36000002 7.88800012,2.56000004 L7.88800012,3.66400005 L6.4440001,5.10800008 L4.59600007,5.70800009 C4.41135835,5.25854795 3.97390039,4.96480362 3.48800005,4.96400007 L1.48800002,4.96400007 C0.825258313,4.96400007 0.288000004,5.50125838 0.288000004,6.16400009 L0.288000004,14.9640002 C0.288000004,15.6267419 0.825258313,16.1640002 1.48800002,16.1640002 L3.48800005,16.1640002 C4.15074176,16.1640002 4.68800007,15.6267419 4.68800007,14.9640002 L4.68800007,14.8080002 L6.4240001,15.9640002 C6.62082744,16.0945608 6.85180729,16.1641331 7.08800011,16.1640002 L14.6880002,16.1640002 C15.7925697,16.1640002 16.6880002,15.2685697 16.6880002,14.1640002 L16.6880002,13.7640002 C16.4736409,13.3927189 16.4736409,12.9352815 16.6880002,12.5640002 L16.6880002,11.3640002 C16.4736409,10.9927189 16.4736409,10.5352814 16.6880002,10.1640002 L16.6880002,8.96400013 C16.4736409,8.59271884 16.4736409,8.13528141 16.6880002,7.76400012 L16.6880002,7.36000011 Z M3.48800005,14.9600002 L1.48800002,14.9600002 L1.48800002,6.16000009 L3.48800005,6.16000009 L3.48800005,14.9600002 Z M15.4880002,7.76000012 L14.8880002,7.76000012 C14.5566294,7.76000012 14.2880002,8.02862927 14.2880002,8.36000012 C14.2880002,8.69137098 14.5566294,8.96000013 14.8880002,8.96000013 L15.4880002,8.96000013 L15.4880002,10.1600002 L14.8880002,10.1600002 C14.5566294,10.1600002 14.2880002,10.4286293 14.2880002,10.7600002 C14.2880002,11.091371 14.5566294,11.3600002 14.8880002,11.3600002 L15.4880002,11.3600002 L15.4880002,12.5600002 L14.8880002,12.5600002 C14.5566294,12.5600002 14.2880002,12.8286293 14.2880002,13.1600002 C14.2880002,13.4913711 14.5566294,13.7600002 14.8880002,13.7600002 L15.4880002,13.7600002 L15.4880002,14.1600002 C15.4880002,14.601828 15.129828,14.9600002 14.6880002,14.9600002 L7.08800011,14.9600002 L4.68800007,13.3600002 L4.68800007,6.9360001 L7.08800011,6.16000009 L9.08800014,4.16000006 L9.08800014,2.56000004 C9.08800014,2.56000004 9.08800014,1.36000002 9.88800015,1.36000002 C10.6880002,1.36000002 10.6880002,2.56000004 10.6880002,2.56000004 L10.6880002,6.5600001 L14.6880002,6.5600001 C15.129828,6.5600001 15.4880002,6.9181723 15.4880002,7.36000011 L15.4880002,7.76000012 Z" id="Shape"></path>
                </g>
            </g>
        </g>
    </g>
</svg>