<?xml version="1.0" encoding="UTF-8"?>
<svg width="40px" height="40px" viewBox="0 0 40 40" version="1.1" xmlns="http://www.w3.org/2000/svg" xmlns:xlink="http://www.w3.org/1999/xlink">
    <!-- Generator: Sketch 58 (84663) - https://sketch.com -->
    <title>User-2</title>
    <desc>Created with Sketch.</desc>
    <defs>
        <filter x="-0.6%" y="-12.1%" width="101.2%" height="127.3%" filterUnits="objectBoundingBox" id="filter-1">
            <feOffset dx="0" dy="2" in="SourceAlpha" result="shadowOffsetOuter1"></feOffset>
            <feGaussianBlur stdDeviation="1" in="shadowOffsetOuter1" result="shadowBlurOuter1"></feGaussianBlur>
            <feComposite in="shadowBlurOuter1" in2="SourceAlpha" operator="out" result="shadowBlurOuter1"></feComposite>
            <feColorMatrix values="0 0 0 0 0.526013361   0 0 0 0 0.526013361   0 0 0 0 0.526013361  0 0 0 0.5 0" type="matrix" in="shadowBlurOuter1" result="shadowMatrixOuter1"></feColorMatrix>
            <feMerge>
                <feMergeNode in="shadowMatrixOuter1"></feMergeNode>
                <feMergeNode in="SourceGraphic"></feMergeNode>
            </feMerge>
        </filter>
    </defs>
    <g id="Page-1" stroke="none" stroke-width="1" fill="none" fill-rule="evenodd" opacity="1">
        <g id="Desktop-HD" transform="translate(-1093.000000, -15.000000)" fill="currentColor">
            <g id="Group" filter="url(#filter-1)">
                <g id="User-2" transform="translate(1095.000000, 15.000000)">
                    <path d="M18.1759989,0.519999969 C8.4557879,0.519999969 0.575999966,8.3997879 0.575999966,18.1199989 C0.575999966,27.8402099 8.4557879,35.7199979 18.1759989,35.7199979 C27.8962099,35.7199979 35.7759979,27.8402099 35.7759979,18.1199989 C35.7759979,8.3997879 27.8962099,0.519999969 18.1759989,0.519999969 Z M2.97599982,18.1199989 C2.97551382,11.4628498 7.30705444,5.58000357 13.6641658,3.60395438 C20.0212771,1.62790518 26.924545,4.01851519 30.6981218,9.50283395 C34.4716987,14.9871527 34.2374054,22.2888806 30.1199982,27.5199984 C28.286179,24.7886168 25.625448,22.7166671 22.5279987,21.6079987 C23.8666179,20.1751214 24.6003023,18.2807255 24.5759985,16.319999 C24.5759985,12.3199993 21.7039987,9.11999946 18.1759989,9.11999946 C14.6479991,9.11999946 11.7759993,12.3199993 11.7759993,16.319999 C11.7561112,18.3506995 12.5514812,20.3045432 13.9839992,21.7439987 C10.8645682,22.8637726 8.23343016,25.0365833 6.54399961,27.8879983 C4.23775685,25.1559264 2.97368843,21.6953265 2.97599982,18.1199989 L2.97599982,18.1199989 Z M18.5759989,20.9199988 C18.1377295,20.9217991 17.6998335,20.94583 17.263999,20.9919987 C15.3170722,20.2859628 14.0625176,18.3878802 14.1759992,16.319999 C14.1759992,13.6719992 15.967999,11.5199993 18.1759989,11.5199993 C20.3839988,11.5199993 22.1759987,13.6719992 22.1759987,16.319999 C22.2745752,18.3296966 21.0946394,20.1829653 19.2319989,20.9439988 C19.0159989,20.9359988 18.7999989,20.9199988 18.5759989,20.9199988 Z M8.3199995,29.7199982 C10.0587824,26.3253878 13.3425535,23.9909251 17.119999,23.4639986 C17.8987858,23.6160852 18.7013326,23.596977 19.4719988,23.4079986 C23.2052286,23.9121149 26.5013747,26.0997181 28.4159983,29.3439983 C22.7742647,34.551379 14.1283556,34.7129526 8.29599951,29.7199982 L8.3199995,29.7199982 Z" id="Shape"></path>
                </g>
            </g>
        </g>
    </g>
</svg>